HIERARCHY
ROOT Hips
{
	OFFSET 0.000000 0.000000 0.000000 
	CHANNELS 6 Xposition Yposition Zposition Zrotation Yrotation Xrotation
	JOINT LeftUpLeg
	{
		OFFSET 1.363060 -1.794630 0.839290 
		CHANNELS 3 Zrotation Yrotation Xrotation
		JOINT LeftLeg
		{
			OFFSET 2.448110 -6.726130 0.000000 
			CHANNELS 3 Zrotation Yrotation Xrotation
			JOINT LeftFoot
			{
				OFFSET 2.562200 -7.039590 0.000000 
				CHANNELS 3 Zrotation Yrotation Xrotation
				JOINT LeftToeBase
				{
					OFFSET 0.157640 -0.433110 2.322550 
					CHANNELS 3 Zrotation Yrotation Xrotation
					End Site
					{
						OFFSET 0.000000 0.000000 0.000000 
					}
				}
			}
		}
	}
	JOINT RightUpLeg
	{
		OFFSET -1.305520 -1.794630 0.839290 
		CHANNELS 3 Zrotation Yrotation Xrotation
		JOINT RightLeg
		{
			OFFSET -2.542530 -6.985550 0.000000 
			CHANNELS 3 Zrotation Yrotation Xrotation
			JOINT RightFoot
			{
				OFFSET -2.568260 -7.056230 0.000000 
				CHANNELS 3 Zrotation Yrotation Xrotation
				JOINT RightToeBase
				{
					OFFSET -0.164730 -0.452590 2.363150 
					CHANNELS 3 Zrotation Yrotation Xrotation
					End Site
					{
						OFFSET 0.000000 0.000000 0.000000 
					}
				}
			}
		}
	}
	JOINT Spine
	{
		OFFSET 0.028270 2.035590 -0.193380 
		CHANNELS 3 Zrotation Yrotation Xrotation
		JOINT Spine1
		{
			OFFSET 0.056720 2.048850 -0.042750 
			CHANNELS 3 Zrotation Yrotation Xrotation
			JOINT Neck1
			{
				OFFSET -0.054170 1.746240 0.172020 
				CHANNELS 3 Zrotation Yrotation Xrotation
				JOINT Head
				{
					OFFSET 0.104070 1.761360 -0.123970 
					CHANNELS 3 Zrotation Yrotation Xrotation
					End Site
					{
						OFFSET 0.000000 0.000000 0.000000 
					}
				}
			}
			JOINT LeftArm
			{
				OFFSET 3.362410 1.200890 -0.311210 
				CHANNELS 3 Zrotation Yrotation Xrotation
				JOINT LeftForeArm
				{
					OFFSET 4.983000 -0.000000 -0.000000 
					CHANNELS 3 Zrotation Yrotation Xrotation
					JOINT LeftHand
					{
						OFFSET 3.483560 -0.000000 -0.000000 
						CHANNELS 3 Zrotation Yrotation Xrotation
						JOINT LeftHandIndex1
						{
							OFFSET 0.715260 -0.000000 -0.000000 
							CHANNELS 3 Zrotation Yrotation Xrotation
							End Site
							{
								OFFSET 0.000000 0.000000 0.000000 
							}
						}
					}
				}
			}
			JOINT RightArm
			{
				OFFSET -3.136600 1.374050 -0.404650 
				CHANNELS 3 Zrotation Yrotation Xrotation
				JOINT RightForeArm
				{
					OFFSET -5.241900 -0.000000 -0.000000 
					CHANNELS 3 Zrotation Yrotation Xrotation
					JOINT RightHand
					{
						OFFSET -3.444170 -0.000000 -0.000000 
						CHANNELS 3 Zrotation Yrotation Xrotation
						JOINT RightHandIndex1
						{
							OFFSET -0.622530 -0.000000 -0.000000 
							CHANNELS 3 Zrotation Yrotation Xrotation
							End Site
							{
								OFFSET 0.000000 0.000000 0.000000 
							}
						}
					}
				}
			}
		}
	}
}
MOTION
Frames: 18
Frame Time: 0.041667
3.125617 16.685305 17.145087 176.217538 -5.994811 -145.419494 -15.104020 -45.573354 -57.213924 17.605265 22.514561 87.601912 4.101068 -7.589925 -50.053064 4.405200 -12.681000 -38.185600 38.474447 42.371304 -43.339276 -6.417532 -10.859176 26.104408 -4.187097 0.742048 -49.164855 -1.117400 6.715000 -18.873800 -0.760636 -5.248013 11.982308 -0.502480 -3.539986 13.141925 3.979668 -5.562630 43.586725 0.080300 -0.458300 6.979800 -107.589972 -8.008499 15.805979 24.675049 -26.295304 -4.041168 0.592640 -0.154012 0.593932 -7.125000 0.000000 0.000000 106.351236 -4.559490 5.005221 -26.307546 35.038232 -5.753547 0.487816 -4.264658 -7.572869 7.125000 0.000000 0.000000 
3.111899 16.697200 17.027192 176.806620 -4.581850 -147.842762 -18.439807 -44.683596 -52.973337 17.659344 22.832714 87.310170 4.466478 -6.526860 -50.579280 3.980100 -12.133900 -36.207500 42.786567 41.341804 -38.185830 -6.451740 -10.275500 24.984462 -3.629433 2.370258 -48.745681 -1.181400 6.898300 -19.414500 -1.755203 -4.187487 15.691880 -0.592412 -2.988193 12.971996 4.129698 -5.362582 40.749915 0.051500 -0.440700 6.588900 -107.881910 -8.305067 16.279990 24.648087 -26.672610 -4.112141 0.586493 -0.153378 0.487714 -7.125000 0.000000 0.000000 106.565110 -4.377969 5.150065 -26.173180 35.183053 -5.741854 0.470368 -4.296630 -7.712244 7.125000 0.000000 0.000000 
3.168017 16.694034 17.077266 176.375463 -5.782344 -146.368540 -15.922982 -45.221317 -56.817611 18.291820 22.722549 89.386261 4.285828 -7.078052 -50.119345 3.675500 -11.715600 -34.733300 40.705534 41.702861 -40.821026 -6.467507 -10.537239 25.286907 -3.962887 1.274472 -48.766383 -1.165400 6.852900 -19.280300 -0.871369 -4.886077 13.735228 -0.772171 -3.334757 12.696262 4.529990 -5.877491 44.269786 0.150200 -0.474100 7.146700 -107.713864 -8.142785 16.561688 24.902970 -26.850320 -4.205665 0.571937 -0.158360 0.418351 -7.125000 0.000000 0.000000 106.440200 -4.467651 5.087566 -26.266617 35.123791 -5.741235 0.440836 -4.275048 -7.836664 7.125000 0.000000 0.000000 
3.189121 16.698159 17.040813 176.418120 -5.428818 -146.918357 -16.669868 -44.908772 -56.399494 18.675876 22.852821 90.244001 4.537201 -6.373086 -50.311088 4.078700 -12.264400 -36.673900 41.486685 41.499789 -39.759661 -6.484198 -10.415790 25.107705 -3.840375 1.684604 -48.813865 -1.148300 6.804300 -19.136900 -0.818972 -4.627044 14.550365 -0.671283 -3.188802 12.583589 4.288195 -5.555775 42.764872 0.124300 -0.432500 6.905400 -107.868061 -8.277537 16.773188 24.912807 -26.959307 -4.231810 0.545832 -0.164545 0.506348 -7.125000 0.000000 0.000000 106.332735 -4.319509 5.163114 -26.289295 35.210192 -5.765699 0.471444 -4.289129 -7.692069 7.125000 0.000000 0.000000 
3.224614 16.708231 17.032468 176.446220 -5.476263 -147.214733 -16.730274 -44.782787 -56.772020 19.154495 22.924889 91.360608 4.771192 -5.570517 -50.261490 4.532200 -12.836800 -38.760600 41.765368 41.537129 -39.290203 -6.487471 -10.400946 25.080618 -3.937353 1.539214 -49.065186 -1.040500 6.487300 -18.204900 0.005507 -4.702235 15.043024 -0.732231 -3.185960 11.924262 4.649233 -5.798231 43.886537 0.217700 -0.458800 7.099400 -107.985661 -8.295285 16.892226 24.844610 -26.937782 -4.215920 0.532484 -0.184280 0.801686 -7.125000 0.000000 0.000000 106.122137 -4.245066 5.372271 -26.206532 35.135081 -5.721314 0.473164 -4.293269 -7.681411 7.125000 0.000000 0.000000 
3.253872 16.710917 17.023930 176.553322 -5.737865 -147.129833 -16.246855 -44.695550 -57.934191 19.662939 22.936919 92.794051 4.779831 -5.584614 -50.166990 4.511600 -12.811800 -38.667900 42.078360 41.467213 -39.064120 -6.495119 -10.306064 24.678431 -4.045607 1.261634 -49.096552 -1.043300 6.495700 -18.229800 1.076573 -4.892291 14.716714 -0.916409 -3.231057 11.984103 4.683785 -5.631853 43.088188 0.260300 -0.419600 6.940200 -108.070502 -8.359328 17.018869 24.872044 -26.975573 -4.234430 0.530733 -0.194447 0.938636 -7.125000 0.000000 0.000000 105.908406 -4.109947 5.564365 -26.185269 35.039070 -5.691749 0.494812 -4.294818 -8.006503 7.125000 0.000000 0.000000 
3.278046 16.708040 17.021340 176.620289 -6.171210 -146.320748 -14.911915 -44.705266 -60.397051 20.206610 22.847421 94.603287 4.493302 -6.586780 -49.883468 3.907000 -12.035700 -35.858300 41.462517 41.719184 -40.068183 -6.471582 -10.265449 24.230044 -4.214615 0.710857 -48.978498 -1.085200 6.620800 -18.596700 1.820834 -5.062371 13.424439 -1.234351 -3.315899 12.276552 4.474706 -5.753811 44.521270 0.232900 -0.442300 7.169100 -108.017186 -8.316990 17.250121 24.927172 -26.938630 -4.250262 0.524817 -0.194184 1.114423 -7.125000 0.000000 0.000000 105.823474 -4.059065 5.276926 -26.240069 35.006828 -5.707045 0.560786 -4.280693 -7.907836 7.125000 0.000000 0.000000 
3.284857 16.714179 16.972417 176.850905 -5.677050 -147.108735 -15.783281 -44.197547 -59.844285 20.481930 22.961788 95.423484 4.263347 -7.198638 -49.590475 3.747200 -11.816200 -35.085000 43.089569 41.342410 -38.195345 -6.470787 -9.975436 23.611004 -3.988668 1.442106 -48.833763 -0.966500 6.259400 -17.538900 0.951678 -4.626016 14.761091 -1.274874 -3.111733 12.130200 4.592422 -5.929360 44.760320 0.200300 -0.473900 7.252600 -107.956972 -8.346020 17.736969 24.917156 -27.027308 -4.274644 0.523816 -0.180096 1.228214 -7.125000 0.000000 0.000000 106.039122 -3.850350 5.041013 -26.145491 35.066686 -5.701645 0.576838 -4.291200 -7.482393 7.125000 0.000000 0.000000 
3.318144 16.714275 16.987286 176.690297 -6.144028 -146.554125 -14.899997 -44.212534 -61.910832 20.940306 22.886890 96.816270 4.095804 -7.694682 -49.256579 3.479300 -11.433200 -33.755300 42.205151 41.536580 -39.221566 -6.474120 -10.099156 23.839922 -4.109726 1.100542 -49.034658 -0.807900 5.736300 -16.021200 1.484696 -4.906432 14.276699 -1.355187 -3.249616 12.294467 4.645563 -5.915823 44.724602 0.209100 -0.466500 7.255600 -107.877514 -8.529507 17.878023 24.932965 -27.015660 -4.275715 0.527792 -0.169723 1.243599 -7.125000 0.000000 0.000000 105.972766 -3.455554 5.130192 -26.096199 35.009646 -5.673972 0.563625 -4.300259 -7.320499 7.125000 0.000000 0.000000 
3.328696 16.715522 16.945557 177.001414 -5.762576 -147.278893 -15.748298 -43.765249 -61.431394 21.021423 22.963146 97.380065 3.500244 -9.406306 -48.773919 2.007400 -8.881600 -25.425500 43.664704 41.093581 -37.528506 -6.490976 -9.904915 23.496362 -3.969971 1.597832 -48.981471 -0.871900 5.953400 -16.649400 2.037359 -4.710083 15.341405 -1.437848 -3.105391 12.018757 4.232546 -5.756802 44.778639 0.150300 -0.454700 7.302800 -108.106994 -8.593041 17.879464 24.791542 -26.940921 -4.234183 0.513957 -0.177323 1.456756 -7.125000 0.000000 0.000000 105.805408 -3.365255 5.441194 -26.219420 35.227590 -5.736913 0.560334 -4.304233 -7.526376 7.125000 0.000000 0.000000 
3.372439 16.714946 16.970978 176.828947 -6.441991 -146.320313 -14.565502 -43.802962 -63.948266 21.370535 22.824721 98.698254 2.965071 -10.827829 -48.064597 1.046000 -6.503900 -18.253800 42.438003 41.502388 -39.083864 -6.478020 -10.063898 23.601950 -4.234693 0.745081 -48.979417 -0.954900 6.222600 -17.431600 3.136292 -5.004603 13.505375 -1.360598 -3.258087 12.195828 3.682761 -5.567322 44.939059 0.072400 -0.450200 7.245000 -108.082823 -8.495627 17.999876 24.867994 -26.849385 -4.243935 0.507657 -0.179398 1.524250 -7.125000 0.000000 0.000000 105.591323 -3.502744 5.627135 -26.501839 35.389947 -5.834232 0.544688 -4.283146 -7.868259 7.125000 0.000000 0.000000 
3.373207 16.722621 16.904979 177.201508 -5.538881 -147.652431 -16.397940 -42.918874 -62.169097 21.419414 23.024938 98.762862 2.753397 -11.231576 -47.773956 0.922300 -6.118600 -17.128800 44.986284 40.684507 -36.163905 -6.495561 -9.723888 23.076934 -3.885706 1.853859 -48.637036 -1.042500 6.493600 -18.223400 2.307476 -4.449269 14.983279 -1.348380 -2.959884 11.711219 3.675057 -5.624568 45.153168 0.060500 -0.447800 7.279500 -108.154079 -8.230743 18.262684 24.829115 -26.900631 -4.259570 0.512098 -0.174880 1.521118 -7.125000 0.000000 0.000000 105.609976 -3.720101 6.061642 -26.699995 35.693596 -5.940125 0.544278 -4.283147 -8.201818 7.125000 0.000000 0.000000 
3.378770 16.726746 16.862483 177.394185 -5.027796 -148.303128 -17.389214 -42.381576 -61.701847 21.562600 23.124799 99.089591 2.589016 -11.470318 -47.389404 0.884600 -5.995600 -16.771600 46.131186 40.202046 -34.858624 -6.507130 -9.556997 22.872261 -3.671715 2.522956 -48.474278 -1.071100 6.579000 -18.474000 2.131837 -4.224429 16.469265 -1.479158 -2.842798 11.749271 4.100387 -5.997472 45.625009 0.093800 -0.540400 7.463100 -108.280266 -8.511787 18.284919 24.656604 -26.843052 -4.206408 0.513257 -0.176649 1.584664 -7.125000 0.000000 0.000000 105.627784 -3.356696 6.391350 -26.655256 35.793909 -5.942122 0.528263 -4.300749 -8.198109 7.125000 0.000000 0.000000 
3.397284 16.728089 16.846751 177.445691 -4.976818 -148.434036 -17.688597 -42.182166 -62.229661 21.762756 23.145595 99.662458 2.413318 -11.867503 -47.071744 0.976300 -6.290000 -17.628200 46.480068 40.084839 -34.451826 -6.514921 -9.474787 22.652311 -3.680059 2.549556 -48.471194 -1.150500 6.810500 -19.155200 2.519191 -4.259479 16.894762 -1.506655 -2.844972 11.934950 4.116430 -5.856463 44.869369 0.110600 -0.507800 7.367700 -108.338206 -8.631672 18.307224 24.639704 -26.875902 -4.208555 0.512209 -0.171213 1.450470 -7.125000 0.000000 0.000000 105.519748 -2.987730 6.698576 -26.701343 35.896783 -5.969613 0.516660 -4.317398 -8.134433 7.125000 0.000000 0.000000 
3.440644 16.723292 16.892317 177.312595 -5.804944 -147.060447 -16.131139 -42.333434 -65.435924 22.158619 22.983322 100.887219 2.262430 -12.310260 -46.755905 0.992600 -6.340700 -17.776300 44.640030 40.915954 -36.880449 -6.457626 -9.710156 22.746604 -3.989668 1.504467 -48.544797 -1.165200 6.852500 -19.279200 3.977121 -4.720181 14.812171 -1.642628 -3.063905 12.213513 4.175840 -5.874540 44.930780 0.146800 -0.520500 7.298500 -108.193650 -8.421995 18.523627 24.844403 -26.943622 -4.279736 0.525626 -0.157988 1.124119 -7.125000 0.000000 0.000000 105.256020 -2.886076 6.866797 -26.937512 35.979072 -6.036635 0.479279 -4.299005 -8.218077 7.125000 0.000000 0.000000 
3.457815 16.727225 16.869390 177.493447 -5.524203 -147.482389 -16.827111 -41.783112 -65.312859 22.196712 23.064003 100.986316 2.054577 -12.695883 -46.405903 0.849600 -5.878700 -16.432800 45.677846 40.641869 -35.761556 -6.450510 -9.524978 22.322279 -3.895894 1.837089 -48.383971 -1.160800 6.840000 -19.242300 3.788553 -4.458342 15.306977 -1.570142 -2.928680 12.110083 4.554566 -6.040576 44.576724 0.177700 -0.543800 7.224900 -108.143809 -8.281496 18.878044 24.922096 -27.065832 -4.332444 0.533808 -0.146971 0.886741 -7.125000 0.000000 0.000000 105.319927 -2.863170 6.893538 -27.164975 36.295578 -6.157052 0.494971 -4.287378 -8.480786 7.125000 0.000000 0.000000 
3.461652 16.732885 16.815095 177.809535 -4.875190 -148.582304 -18.357825 -41.105924 -63.932547 22.069153 23.225516 100.528226 1.940989 -12.778010 -46.163867 1.173100 -6.874900 -19.345400 47.682851 39.950654 -33.349168 -6.465547 -9.186299 21.755727 -3.697404 2.632000 -48.262678 -1.181300 6.898000 -19.413400 3.372725 -4.080755 16.976963 -1.568234 -2.715186 11.892045 4.796029 -6.107679 44.227834 0.194400 -0.544200 7.224300 -108.239890 -8.260205 18.998479 24.872558 -27.159411 -4.340898 0.523585 -0.156127 0.768030 -7.125000 0.000000 0.000000 105.397168 -2.781951 7.078394 -27.384721 36.707095 -6.305788 0.587059 -4.274950 -8.857402 7.125000 0.000000 0.000000 
3.468847 16.738832 16.780177 178.027775 -4.624006 -149.317096 -19.458045 -40.744216 -63.224660 21.944409 23.321868 100.137100 1.844764 -12.905473 -45.997381 1.623500 -8.033300 -22.815200 49.133021 39.275178 -31.563864 -6.508970 -8.886942 21.185322 -3.620112 3.048299 -48.160514 -1.198700 6.946800 -19.557900 3.715351 -4.075870 17.829303 -1.756320 -2.661250 11.513230 4.760258 -6.087980 44.636614 0.219400 -0.529000 7.328200 -108.391320 -8.025075 18.797111 24.852469 -27.242899 -4.351089 0.506038 -0.178778 0.674493 -7.125000 0.000000 0.000000 105.277272 -2.822885 7.540853 -27.658263 37.078039 -6.454766 0.615609 -4.223814 -9.088601 7.125000 0.000000 0.000000 
